<?xml version="1.0" encoding="utf-8"?>
<!-- Generator: Adobe Illustrator 17.0.0, SVG Export Plug-In . SVG Version: 6.00 Build 0)  -->
<!DOCTYPE svg PUBLIC "-//W3C//DTD SVG 1.1//EN" "http://www.w3.org/Graphics/SVG/1.1/DTD/svg11.dtd">
<svg version="1.1" id="Capa_1" xmlns="http://www.w3.org/2000/svg" xmlns:xlink="http://www.w3.org/1999/xlink" x="0px" y="0px"
	 width="200px" height="145px" viewBox="0 0 200 145" enable-background="new 0 0 200 145" xml:space="preserve">
<g>
	<g>
		<g>
			<path fill="#E6E5CE" d="M114.737,106.46H85.263c-0.872,0-1.579,0.512-1.579,1.145s0.707,1.145,1.579,1.145h29.474
				c0.872,0,1.579-0.512,1.579-1.145C116.316,106.973,115.609,106.46,114.737,106.46z"/>
			<path fill="#E6E5CE" d="M142.105,77.46c-0.646,0-1.274,0.056-1.876,0.163l-8.449-10.291c1.002-0.526,1.959-1.117,2.861-1.77
				c9.234-6.695,9.234-17.588,0-24.284c-6.764-4.904-16.635-6.215-25.061-3.936c-3.088-0.726-6.308-1.093-9.581-1.093
				c-17.122,0-31.052,10.099-31.052,22.513v3.053c0,3.998,4.486,7.25,10,7.25h29.183c6.677,2.184,14.474,2.012,20.974-0.517
				l8.26,10.061c-1.914,1.045-3.154,2.707-3.154,4.574c0,0.128,0.006,0.255,0.017,0.382h-10.1l1.36-3.942
				c0.435-1.263,0.052-2.575-1.053-3.601c-1.105-1.026-2.768-1.614-4.563-1.614H80.13c-1.795,0-3.459,0.588-4.563,1.614
				c-1.105,1.026-1.489,2.339-1.053,3.601l1.36,3.942h-10.1c0.012-0.126,0.017-0.253,0.017-0.382c0-3.156-3.541-5.724-7.895-5.724
				S50,80.028,50,83.184c0,2.764,2.717,5.077,6.316,5.609v10.036h-2.252c-1.085,0-2.11,0.344-2.811,0.944
				c-0.702,0.6-1.002,1.389-0.823,2.166l1.346,5.854c0.143,0.623,0.955,1.046,1.817,0.941c0.86-0.104,1.441-0.694,1.298-1.317
				l-1.346-5.854c-0.035-0.152,0.059-0.259,0.117-0.309c0.059-0.05,0.189-0.135,0.402-0.135h7.661c0.212,0,0.343,0.085,0.402,0.135
				c0.059,0.05,0.152,0.158,0.118,0.309l-1.346,5.854c-0.143,0.624,0.438,1.213,1.298,1.317c0.088,0.011,0.175,0.016,0.262,0.016
				c0.758,0,1.427-0.397,1.556-0.957l1.346-5.855c0.178-0.776-0.122-1.565-0.823-2.165c-0.702-0.6-1.726-0.944-2.811-0.944h-2.252
				V88.793c2.344-0.346,4.313-1.448,5.402-2.938h11.786l3.37,9.771c1.115,3.233,5.104,5.492,9.702,5.492h20.534
				c4.597,0,8.586-2.258,9.702-5.492l3.37-9.772h11.786c1.326,1.814,3.958,3.053,6.981,3.053c4.353,0,7.895-2.568,7.895-5.724
				C150,80.028,146.458,77.46,142.105,77.46z M78.947,66.776c-3.773,0-6.842-2.225-6.842-4.961v-3.053
				c0-11.151,12.513-20.224,27.895-20.224c1.774,0,3.531,0.12,5.254,0.359c-1.458,0.667-2.837,1.461-4.106,2.381
				c-2.825,2.048-4.786,4.489-5.882,7.083c-1.127-0.431-2.393-0.665-3.686-0.665c-4.353,0-7.895,2.567-7.895,5.724
				s3.541,5.724,7.895,5.724c1.294,0,2.559-0.233,3.686-0.665c1.097,2.593,3.057,5.035,5.882,7.083
				c0.596,0.432,1.217,0.837,1.859,1.213H78.947z M94.513,56.117c-0.831,0.479-1.85,0.738-2.934,0.738
				c-2.612,0-4.737-1.541-4.737-3.434s2.125-3.434,4.737-3.434c1.084,0,2.103,0.259,2.934,0.738
				C94.124,52.51,94.124,54.332,94.513,56.117z M103.38,63.944c-8.003-5.802-8.003-15.243,0-21.045
				c4.001-2.901,9.258-4.352,14.514-4.352s10.513,1.451,14.514,4.352c8.003,5.802,8.003,15.243,0,21.045
				C124.406,69.746,111.383,69.746,103.38,63.944z M57.895,86.618c-2.612,0-4.737-1.541-4.737-3.434
				c0-1.894,2.125-3.434,4.737-3.434c2.612,0,4.737,1.541,4.737,3.434S60.506,86.618,57.895,86.618z M122.423,79.068l-1.551,4.498
				H104.21c-0.872,0-1.579,0.512-1.579,1.145s0.707,1.145,1.579,1.145h15.872l-3.178,9.216c-0.763,2.212-3.492,3.758-6.638,3.758
				H89.732c-3.145,0-5.875-1.545-6.638-3.758l-5.519-16.003c-0.198-0.574-0.024-1.17,0.479-1.637
				c0.502-0.466,1.258-0.734,2.074-0.734h39.741c0.816,0,1.572,0.267,2.074,0.734C122.446,77.897,122.621,78.494,122.423,79.068z
				 M142.105,86.618c-2.048,0-3.797-0.948-4.457-2.27c-0.006-0.014-0.013-0.027-0.02-0.041c-0.168-0.352-0.26-0.73-0.26-1.123
				c0-1.388,1.142-2.586,2.78-3.127c0.015-0.005,0.03-0.009,0.045-0.014c0.585-0.188,1.232-0.292,1.912-0.292
				c2.612,0,4.737,1.541,4.737,3.434C146.842,85.078,144.717,86.618,142.105,86.618z"/>
			<path fill="#E6E5CE" d="M87.368,89.518c-0.872,0-1.579,0.512-1.579,1.145v0.153c0,0.632,0.707,1.145,1.579,1.145
				c0.872,0,1.579-0.512,1.579-1.145v-0.153C88.947,90.031,88.24,89.518,87.368,89.518z"/>
			<path fill="#E6E5CE" d="M110.526,91.96c0.872,0,1.579-0.512,1.579-1.145v-0.153c0-0.632-0.707-1.145-1.579-1.145
				s-1.579,0.512-1.579,1.145v0.153C108.947,91.448,109.654,91.96,110.526,91.96z"/>
			<path fill="#E6E5CE" d="M129.432,45.057c-3.082-2.234-7.179-3.465-11.537-3.465s-8.456,1.231-11.537,3.465
				c-3.081,2.234-4.779,5.205-4.779,8.364s1.697,6.13,4.779,8.364c3.082,2.234,7.179,3.465,11.537,3.465s8.455-1.23,11.537-3.465
				c3.081-2.234,4.779-5.205,4.779-8.364S132.513,47.291,129.432,45.057z M127.198,60.166c-2.485,1.802-5.789,2.794-9.304,2.794
				s-6.819-0.992-9.304-2.794c-2.486-1.802-3.854-4.197-3.854-6.745c0-2.548,1.369-4.944,3.854-6.745
				c2.485-1.802,5.789-2.794,9.304-2.794s6.819,0.992,9.304,2.794c2.486,1.802,3.854,4.197,3.854,6.745
				C131.052,55.969,129.684,58.365,127.198,60.166z"/>
			<path fill="#E6E5CE" d="M93.684,89.518c-0.872,0-1.579,0.512-1.579,1.145v0.153c0,0.632,0.707,1.145,1.579,1.145
				s1.579-0.512,1.579-1.145v-0.153C95.263,90.031,94.556,89.518,93.684,89.518z"/>
			<path fill="#E6E5CE" d="M91.579,78.987h-4.211c-2.031,0-3.684,1.198-3.684,2.671v3.053c0,1.473,1.653,2.671,3.684,2.671h4.211
				c2.031,0,3.684-1.198,3.684-2.671v-3.053C95.263,80.185,93.61,78.987,91.579,78.987z M92.105,84.71
				c0,0.21-0.236,0.382-0.526,0.382h-4.211c-0.29,0-0.526-0.171-0.526-0.382v-3.053c0-0.21,0.236-0.382,0.526-0.382h4.211
				c0.29,0,0.526,0.171,0.526,0.382V84.71z"/>
		</g>
	</g>
</g>
</svg>
