<?xml version="1.0" encoding="utf-8"?>
<!-- Generator: Adobe Illustrator 17.0.0, SVG Export Plug-In . SVG Version: 6.00 Build 0)  -->
<!DOCTYPE svg PUBLIC "-//W3C//DTD SVG 1.1//EN" "http://www.w3.org/Graphics/SVG/1.1/DTD/svg11.dtd">
<svg version="1.1" id="Capa_1" xmlns="http://www.w3.org/2000/svg" xmlns:xlink="http://www.w3.org/1999/xlink" x="0px" y="0px"
	 width="200px" height="145px" viewBox="0 0 200 145" enable-background="new 0 0 200 145" xml:space="preserve">
<g>
	<g>
		<path fill="#E6E5CE" d="M90.287,56.69h19.46c-2.142-2.156-5.708-3.567-9.73-3.567C95.995,53.123,92.429,54.534,90.287,56.69z"/>
		<path fill="#E6E5CE" d="M118.964,84.567H81.047l-2.336,6.22c-0.33,0.617,0.33,1.282,1.265,1.282h8.169v15.454
			c0,2.06,2.37,3.727,5.298,3.727c2.928,0,5.298-1.667,5.298-3.727V92.061h2.552v15.445c0,2.06,2.37,3.727,5.298,3.727
			c2.928,0,5.298-1.667,5.298-3.727V92.061h8.169c0.946,0,1.595-0.657,1.265-1.282L118.964,84.567z"/>
		<path fill="#E6E5CE" d="M117.05,58.461H82.973c-0.809,0-1.447,0.497-1.356,1.066l1.686,10.989h33.668l1.447-11.005
			C118.486,58.95,117.859,58.461,117.05,58.461z"/>
		<polygon fill="#E6E5CE" points="82.824,72.215 82.824,72.288 82.824,74.684 117.187,74.684 117.187,72.288 117.187,72.215 		"/>
		<path fill="#E6E5CE" d="M139.404,72.376c3.691-0.273,6.586-2.477,6.586-5.146c0-2.853-2.974-5.13-7.36-5.13
			c-0.319,0-12.635,0-12.635,0v12.584h13.41V72.376L139.404,72.376z M139.404,64.922c1.481,0.249,2.598,1.186,2.598,2.308
			c0,1.122-1.105,2.06-2.598,2.308V64.922z"/>
		<path fill="#E6E5CE" d="M148.644,76.127H51.367c-0.752,0-1.367,0.433-1.367,0.962v5.074c0,0.529,0.615,0.962,1.367,0.962h2.883
			v24.831c0,1.218,1.401,2.204,3.133,2.204c1.732,0,3.133-0.986,3.133-2.204V83.124h78.968v24.831c0,1.218,1.401,2.204,3.133,2.204
			c1.732,0,3.133-0.986,3.133-2.204V83.124h2.882c0.752,0,1.367-0.433,1.367-0.962v-5.074
			C150.011,76.56,149.407,76.127,148.644,76.127z"/>
		<path fill="#E6E5CE" d="M114.054,49.059c-0.991-0.377-3.167-1.459-3.167-3.687c0-2.886,1.025-11.622-10.881-11.622
			s-10.881,8.737-10.881,11.622c0,2.228-2.176,3.31-3.167,3.687c-0.296,0.112-0.433,0.353-0.33,0.569
			c0.661,1.491,2.324,1.948,4.113,1.948c2.746,0,5.765-1.074,5.765-1.074c-1.424-0.585-2.153-1.747-2.507-2.918
			c1.493,1.739,4.079,2.886,7.007,2.886s5.515-1.146,7.007-2.886c-0.353,1.178-1.082,2.332-2.507,2.918c0,0,3.019,1.074,5.765,1.074
			c1.777,0,3.452-0.449,4.113-1.948C114.487,49.412,114.35,49.171,114.054,49.059z"/>
	</g>
</g>
</svg>
